<?xml version="1.0" encoding="UTF-8" standalone="no"?>
<!-- Created with Inkscape (http://www.inkscape.org/) -->

<svg
   width="20"
   height="20"
   viewBox="0 0 5.2916665 5.2916668"
   version="1.1"
   id="svg432"
   inkscape:version="1.1.1 (3bf5ae0d25, 2021-09-20)"
   sodipodi:docname="icon_settings.svg"
   xmlns:inkscape="http://www.inkscape.org/namespaces/inkscape"
   xmlns:sodipodi="http://sodipodi.sourceforge.net/DTD/sodipodi-0.dtd"
   xmlns="http://www.w3.org/2000/svg"
   xmlns:svg="http://www.w3.org/2000/svg">
  <sodipodi:namedview
     id="namedview434"
     pagecolor="#ffffff"
     bordercolor="#666666"
     borderopacity="1.0"
     inkscape:pageshadow="2"
     inkscape:pageopacity="0.0"
     inkscape:pagecheckerboard="0"
     inkscape:document-units="mm"
     showgrid="false"
     units="px"
     inkscape:zoom="39.55"
     inkscape:cx="10"
     inkscape:cy="10"
     inkscape:window-width="1920"
     inkscape:window-height="1051"
     inkscape:window-x="-9"
     inkscape:window-y="-9"
     inkscape:window-maximized="1"
     inkscape:current-layer="layer1" />
  <defs
     id="defs429" />
  <g
     inkscape:label="Camada 1"
     inkscape:groupmode="layer"
     id="layer1">
    <path
       id="path872"
       style="fill:#c3ccdf;fill-opacity:1;stroke:#333333;stroke-width:0;stroke-linecap:round;stroke-miterlimit:4;stroke-dasharray:none"
       d="m 2.6280213,2.0833579e-4 c -0.09368,6.4e-4 -0.187199,0.006000004 -0.280162,0.0168000042 -0.145134,0.0165 -0.217837,0.13291 -0.217851,0.24943 -7e-6,0.28489 -0.230948,0.51584 -0.515832,0.51585 -0.115515,4e-5 -0.22483,-0.0385 -0.312959,-0.10564 -0.114923,-0.0876 -0.259497,-0.13974 -0.37070197,-0.045 -0.129624,0.11039 -0.248294,0.23303 -0.354353,0.36622 -0.09098,0.11425996 -0.06009,0.24800996 0.02226,0.33037996 0.201445,0.20146 0.201445,0.52807 0,0.72953 -0.08166,0.0816 -0.18615,0.13165 -0.295927,0.14643 -0.143213,0.0193 -0.282309,0.0846 -0.293997,0.23022 -0.0056,0.0704 -0.00849999667,0.14095 -0.00849999667,0.2116 1.4e-5,0.0997 0.00569999667,0.19924 0.01688999667,0.29816 0.01648,0.14513 0.132866,0.21787 0.249298,0.21786 0.284884,1e-5 0.515826,0.23096 0.515833,0.51585 -5e-6,0.11544 -0.0385,0.22468 -0.105629,0.31275 -0.0876,0.11493 -0.139735,0.25951 -0.04504,0.37072 0.110382,0.12962 0.233022,0.2483 0.366206,0.35436 0.11425497,0.091 0.24799497,0.0601 0.33036497,-0.0222 0.09462,-0.0946 0.222301,-0.14876 0.356088,-0.151 0.139796,-0.002 0.27456,0.0521 0.37343,0.151 0.08163,0.0817 0.131643,0.18616 0.146423,0.29594 0.01928,0.14321 0.08462,0.28231 0.230214,0.29399 0.07041,0.006 0.141046,0.008 0.211749,0.008 0.09964,-1e-5 0.199124,-0.006 0.297987,-0.0169 0.145132,-0.0165 0.217869,-0.13286 0.217847,-0.2493 7e-6,-0.28489 0.230949,-0.51584 0.515833,-0.51585 0.115458,0 0.224712,0.0385 0.3128,0.10564 0.114923,0.0876 0.259497,0.13974 0.370701,0.045 0.129624,-0.11039 0.248294,-0.23303 0.354352,-0.36622 0.09098,-0.11426 0.0601,-0.24801 -0.02226,-0.33038 -0.201444,-0.20146 -0.201444,-0.52807 0,-0.72953 0.09462,-0.0946 0.222301,-0.14876 0.356088,-0.151 0.112103,-0.002 0.222306,-0.08 0.233995,-0.22564 0.0057,-0.0704 0.0085,-0.14105 0.0085,-0.21176 -2.4e-5,-0.0996 -0.0057,-0.19914 -0.0169,-0.29801 -0.01648,-0.14513 -0.13294,-0.21784 -0.249459,-0.21786 -0.284884,-1e-5 -0.515826,-0.23096 -0.515833,-0.51585 -6e-6,-0.11546 0.03849,-0.22471 0.10563,-0.3128 0.0876,-0.11493 0.139748,-0.25952 0.04507,-0.37073996 -0.11039,-0.12967 -0.233044,-0.24838 -0.366249,-0.35448 -0.114246,-0.091 -0.247951,-0.06 -0.330352,0.0224 -0.201451,0.20146 -0.528066,0.20146 -0.729517,0 -0.08164,-0.0817 -0.131649,-0.18616 -0.146428,-0.29595 -0.01928,-0.14321 -0.08461,-0.28231 -0.23021,-0.29399 -0.07035,-0.006 -0.140939,-0.008000004 -0.21159,-0.008000004 -0.0059,-2e-5 -0.01188,-2e-5 -0.01782,0 z M 2.6458413,1.7806983 c 0.477855,10e-6 0.865231,0.38739 0.865238,0.86526 8.1e-5,0.47793 -0.387321,0.86541 -0.865238,0.86542 -0.477917,-1e-5 -0.865319,-0.38749 -0.865237,-0.86542 6e-6,-0.47787 0.387383,-0.86525 0.865237,-0.86526 z" />
  </g>
</svg>
